<?xml version="1.0" encoding="UTF-8" standalone="no"?>
<svg viewBox="0 0 117 47" version="1.1" xmlns="http://www.w3.org/2000/svg" xmlns:xlink="http://www.w3.org/1999/xlink">
    <defs></defs>
    <g id="Page-1" stroke="none" stroke-width="1" fill="none" fill-rule="evenodd">
        <g id="logo_INNA-TOUR-01">
            <path d="M58.04575,0.906536585 C26.3759727,0.906536585 0.936113281,11.1017073 0.936113281,23.3870732 C0.936113281,35.672439 26.6114023,45.632 58.2811797,45.632 C89.9520781,45.632 115.627367,35.672439 115.627367,23.3870732 C115.627367,11.1017073 89.7166484,0.906536585 58.04575,0.906536585 L58.04575,0.906536585 Z" id="Path" stroke="#7CB621"></path>
            <path d="M95.0283906,34.3451707 C93.1684961,34.3451707 92.5832852,33.072878 92.5832852,33.072878 L90.0406445,27.2039512 L84.6963906,27.2039512 C84.6963906,27.2039512 84.4699297,34.3451707 79.4182812,34.3451707 C74.9204531,34.3451707 73.2276016,31.1812683 73.2276016,31.1812683 L65.340707,20.2265366 C65.340707,20.2265366 65.0817344,19.8338537 64.7554961,19.8338537 C64.4281367,19.8338537 64.3631133,20.3566829 64.3631133,20.3566829 L64.3631133,31.6390244 C64.3631133,31.6390244 64.4942812,34.3799512 61.9516406,34.3799512 C59.5412891,34.3799512 59.3462187,31.7040976 59.3462187,31.7040976 L59.3462187,16.6407805 C59.3462187,16.6407805 59.4762656,12.9540488 62.8003086,12.9540488 C66.0593281,12.9540488 67.360918,15.1396098 67.360918,15.1396098 L77.3980703,28.8330244 C77.3980703,28.8330244 77.7904531,29.4209268 78.7669258,29.4209268 C79.9407109,29.4209268 79.9407109,27.8569268 79.9407109,27.8569268 L79.9407109,16.6407805 C79.9407109,16.6407805 80.264707,12.9540488 84.1773242,12.9540488 C89.651625,12.9540488 90.7592656,16.7709268 90.7592656,16.7709268 L96.6562187,31.508878 C96.6562187,31.508878 97.3400859,34.3451707 95.0283906,34.3451707 L95.0283906,34.3451707 Z M57.3473086,29.8786829 C57.3473086,29.8786829 57.1948398,34.3451707 52.7306445,34.3451707 C47.6913281,34.3451707 45.5085586,30.6797561 45.5085586,30.6797561 L38.2091172,20.5092683 C38.2091172,20.5092683 37.8391562,19.8989268 37.4254727,19.8989268 C36.8940742,19.8989268 36.9927305,20.5092683 36.9927305,20.5092683 L36.9927305,28.475122 C36.9927305,28.475122 36.4691797,34.4237073 29.8872383,34.4237073 C23.1763711,34.4237073 22.7402656,28.336 22.7402656,28.336 L22.7402656,14.858 C22.7402656,14.858 23.1326484,12.9439512 25.1315586,12.9439512 C27.1293477,12.9439512 27.5206094,14.880439 27.5206094,14.880439 L27.5206094,27.6392683 C27.5206094,27.6392683 27.7369805,29.8136098 29.9522617,29.8136098 C32.1686641,29.8136098 32.2123867,27.6392683 32.2123867,27.6392683 L32.2123867,16.6407805 C32.2123867,16.6407805 31.9534141,12.9439512 35.4265625,12.9439512 C38.6205586,12.9439512 39.7281992,15.1396098 39.7281992,15.1396098 L49.6790273,28.336 C49.6790273,28.336 50.1992148,29.2907805 51.4156016,29.2907805 C52.6319883,29.2907805 52.5456641,27.9006829 52.5456641,27.9006829 L52.5456641,15.5513659 C52.5456641,15.5513659 52.5669648,12.9439512 55.0008594,12.9439512 C57.4347539,12.9439512 57.3473086,15.3797073 57.3473086,15.3797073 L57.3473086,29.8786829 L57.3473086,29.8786829 Z M25.2616055,6.5297561 C26.8087148,6.5297561 28.0632187,7.78634146 28.0632187,9.33463415 C28.0632187,10.8840488 26.8087148,12.1395122 25.2616055,12.1395122 C23.713375,12.1395122 22.45775,10.8840488 22.45775,9.33463415 C22.45775,7.78634146 23.713375,6.5297561 25.2616055,6.5297561 Z M85.3499883,17.6819512 C84.7950469,17.6819512 84.6963906,18.4661951 84.6963906,18.4661951 L84.6963906,23.4891707 L88.4128164,23.4891707 L86.5562852,18.4336585 C86.5562852,18.4336585 86.4576289,17.6819512 85.3499883,17.6819512 Z" id="Fill-2" fill="#7CB621"></path>
        </g>
    </g>
</svg>
