<?xml version="1.0" encoding="UTF-8" standalone="no"?>
<svg width="14px" height="14px" viewBox="0 0 14 14" version="1.1" xmlns="http://www.w3.org/2000/svg" xmlns:xlink="http://www.w3.org/1999/xlink">
    <!-- Generator: Sketch 39.1 (31720) - http://www.bohemiancoding.com/sketch -->
    <title>Иконка - Самолет</title>
    <desc>Created with Sketch.</desc>
    <defs></defs>
    <g id="Таиланд" stroke="none" stroke-width="1" fill="none" fill-rule="evenodd">
        <g id="Lannding-375-(mobile)" transform="translate(-115.000000, -1303.000000)" fill="#757575">
            <g id="Включено" transform="translate(16.000000, 1301.000000)">
                <g id="DP" transform="translate(98.000000, 1.000000)">
                    <g id="Иконка---Самолет">
                        <path d="M14.0656708,1.10284243 L9.90937285,4.54100854 L2.12135388,3.48933405 C2.02047259,3.46911072 1.9195913,3.50956004 1.85906412,3.5702327 L1.09236793,4.33876458 C0.930959461,4.50055922 0.991483978,4.76347851 1.19324656,4.84437716 L3.95739013,6.0578463 L3.7556249,6.26009293 C3.55386498,6.46233956 3.55386498,6.78592885 3.7556249,6.98817548 C3.95739013,7.19042211 4.28020972,7.19041945 4.4819723,6.98817548 L4.96620036,6.50278889 L7.04434798,7.41288941 L4.0380941,11.1948751 L1.75818177,10.7297113 C1.65730128,10.7094871 1.55642026,10.7499362 1.47571602,10.8106102 L1.2537778,11.0330801 C1.1125432,11.1746506 1.15289674,11.4375704 1.33448145,11.5386919 L3.45298316,12.5903664 L4.50214726,14.7139417 C4.60302809,14.8959628 4.84514233,14.9566352 5.00655213,14.7948392 L5.22848985,14.5723698 C5.30919621,14.4914731 5.3293714,14.3903489 5.30919408,14.2892259 L4.84514387,12.0038568 L8.5979161,8.97017916 L9.46549358,10.9521828 L8.9610898,11.4577954 C8.75932723,11.6600394 8.75932723,11.9836287 8.9610898,12.185878 C9.16285238,12.3881219 9.48566984,12.3881225 9.68743428,12.185875 L9.90937285,11.9634053 L11.160296,14.8150645 C11.2410005,15.01731 11.5032919,15.0577583 11.664702,14.916186 L12.4313979,14.1476538 C12.491926,14.086982 12.5322785,13.9858585 12.5121013,13.8847377 L11.462941,6.07807229 L14.8928941,1.91182097 C14.9332482,1.87137165 14.953424,1.81069899 14.953424,1.72980034 L14.9937754,1.3050864 C15.0341269,1.1432891 14.8727184,0.981494455 14.6709585,1.00171779 L14.247255,1.04216711 C14.1867278,1.04216711 14.1261979,1.06239044 14.0656708,1.10284243 Z" id="Page-1"></path>
                    </g>
                </g>
            </g>
        </g>
    </g>
</svg>