<?xml version="1.0" encoding="UTF-8" standalone="no"?>
<svg width="16px" height="15px" viewBox="0 0 16 15" version="1.1" xmlns="http://www.w3.org/2000/svg" xmlns:xlink="http://www.w3.org/1999/xlink">
    <!-- Generator: Sketch 39.1 (31720) - http://www.bohemiancoding.com/sketch -->
    <title>Иконка - Виза</title>
    <desc>Created with Sketch.</desc>
    <defs></defs>
    <g id="Таиланд" stroke="none" stroke-width="1" fill="none" fill-rule="evenodd">
        <g id="Landing-960" transform="translate(-1062.000000, -752.000000)" fill="#7CB621">
            <g id="Group-2" transform="translate(1054.000000, 745.000000)">
                <g id="Иконка---Виза" transform="translate(8.000000, 7.000000)">
                    <g id="Group">
                        <path d="M9.11937662,2.31035897 C9.11937662,1.04984615 8.08519481,0.0299487179 6.80997403,0.0299487179 C5.53392208,0.0299487179 4.49953247,1.05005128 4.49953247,2.31035897 C4.49953247,3.56923077 5.53412987,4.58994872 6.80997403,4.58994872 C8.08519481,4.58994872 9.11937662,3.56902564 9.11937662,2.31035897 L9.11937662,2.31035897 L9.11937662,2.31035897 Z" id="Shape"></path>
                        <path d="M15.3193766,4.56 C14.8909091,4.46789744 14.4439481,4.60717949 14.1476364,4.92779487 L13.3906494,5.74584615 L13,5.74584615 L13,2 L15.3193766,2 L15.3193766,4.56 L15.3193766,4.56 Z" id="Shape"></path>
                        <rect id="Rectangle-path" x="0.157298701" y="12.998359" width="14.574961" height="1.67876923"></rect>
                        <path d="M15.6930909,7.06666667 L12.4305455,10.5961026 C12.3815065,10.6490256 12.3266494,10.6970256 12.267013,10.7394872 C11.7876364,11.081641 11.118961,10.9757949 10.7719481,10.502359 L9.71428571,9.05764103 C9.58774026,8.88451282 9.34296104,8.84615385 9.16758442,8.97025641 C9.0665974,9.04307692 9.00571429,9.16020513 9.00571429,9.28348718 L9.00571429,12.5702564 L3.77475325,12.5702564 L9.97236364,6.12164103 L11.4370909,8.12307692 C11.5640519,8.29620513 11.8084156,8.3345641 11.9837922,8.20882051 C12.0056104,8.19364103 12.0251429,8.17682051 12.0438442,8.15589744 L14.2516364,5.76738462 C14.6152727,5.37558974 15.2322078,5.34748718 15.6290909,5.70482051 C16.0280519,6.06420513 16.0567273,6.67323077 15.6930909,7.06666667 L15.6930909,7.06666667 Z" id="Shape"></path>
                        <path d="M2.71563636,12.5704615 L3.36685714,11.2139487 L8.78483117,5.57558974 L4.5787013,5.57558974 C4.17412987,5.57558974 3.80592208,5.80553846 3.63241558,6.16697436 L0.556675325,12.5704615 L2.71563636,12.5704615 L2.71563636,12.5704615 Z" id="Shape"></path>
                    </g>
                </g>
            </g>
        </g>
    </g>
</svg>