<?xml version="1.0" encoding="UTF-8" standalone="no"?>
<svg width="14px" height="14px" viewBox="0 0 14 14" version="1.1" xmlns="http://www.w3.org/2000/svg" xmlns:xlink="http://www.w3.org/1999/xlink">
    <!-- Generator: Sketch 39.1 (31720) - http://www.bohemiancoding.com/sketch -->
    <title>Иконка - Трансфер</title>
    <desc>Created with Sketch.</desc>
    <defs></defs>
    <g id="Таиланд" stroke="none" stroke-width="1" fill="none" fill-rule="evenodd">
        <g id="Lannding-375-(mobile)" transform="translate(-179.000000, -1303.000000)" fill="#757575">
            <g id="Включено" transform="translate(16.000000, 1301.000000)">
                <g id="DP" transform="translate(98.000000, 1.000000)">
                    <g id="Иконка---Трансфер" transform="translate(64.000000, 0.000000)">
                        <path d="M11.5,8.875 L4.5,8.875 L4.5,3.625 L11.4871795,3.625 L11.4871795,8.875 L11.5,8.875 L11.5,8.875 Z M10.625,12.375 C10.1360294,12.375 9.75,11.9761029 9.75,11.5 C9.75,11.0238971 10.1488971,10.625 10.625,10.625 C11.1011029,10.625 11.5,11.0238971 11.5,11.5 C11.5,11.9761029 11.1011029,12.375 10.625,12.375 L10.625,12.375 Z M5.375,12.378217 C4.88602941,12.378217 4.5,11.9785866 4.5,11.5016085 C4.5,11.0246303 4.89889706,10.625 5.375,10.625 C5.85110294,10.625 6.25,11.0246303 6.25,11.5016085 C6.25,11.9785866 5.86397059,12.378217 5.375,12.378217 L5.375,12.378217 Z M4.0625,1 C3.34134615,1 2.75,1.5919967 2.75,2.31394389 L2.75,13.6860561 C2.75,14.4080033 3.34134615,15 4.0625,15 C4.78365385,15 5.375,14.4080033 5.375,13.6860561 L10.625,13.6860561 C10.625,14.4080033 11.2163462,15 11.9375,15 C12.6586538,15 13.25,14.4080033 13.25,13.6860561 L13.25,2.31394389 C13.25,1.5919967 12.6586538,1 11.9375,1 L4.0625,1 Z M13.726,8 L15,8 L15,5.375 L13.726,5.375 L13.726,8 Z M1,8 L2.274,8 L2.274,5.375 L1,5.375 L1,8 Z" id="Combined-Shape-Copy"></path>
                    </g>
                </g>
            </g>
        </g>
    </g>
</svg>