<?xml version="1.0" encoding="UTF-8" standalone="no"?>
<svg width="12px" height="14px" viewBox="0 0 12 14" version="1.1" xmlns="http://www.w3.org/2000/svg" xmlns:xlink="http://www.w3.org/1999/xlink">
    <!-- Generator: Sketch 39.1 (31720) - http://www.bohemiancoding.com/sketch -->
    <title>Иконка - Отель</title>
    <desc>Created with Sketch.</desc>
    <defs></defs>
    <g id="Таиланд" stroke="none" stroke-width="1" fill="none" fill-rule="evenodd">
        <g id="Landing-960" transform="translate(-522.000000, -1822.000000)" fill="#FFFFFF">
            <g id="Карточка-1" transform="translate(504.000000, 1801.000000)">
                <g id="Иконка---Отель" transform="translate(16.000000, 20.000000)">
                    <g id="noun_275499_cc" transform="translate(2.000000, 1.000000)">
                        <g id="Group">
                            <path d="M0.6567,14 L11.3433,14 C11.63865,14 11.87775,13.8018222 11.8776,13.5566667 C11.8776,13.3115111 11.6382,13.1133333 11.3433,13.1133333 L11.1027,13.1133333 L11.1027,3.84813333 C11.1027,3.54215556 10.863,3.29388889 10.56825,3.29388889 L9.9204,3.29388889 C9.53775,1.41244444 7.9281,0 5.99985,0 C4.07175,0 2.4621,1.41244444 2.0793,3.29388889 L1.4313,3.29388889 C1.1361,3.29388889 0.897,3.542 0.897,3.84813333 L0.897,13.1134889 L0.6567,13.1134889 C0.36165,13.1134889 0.1224,13.3119778 0.1224,13.5568222 C0.1224,13.8016667 0.36165,14 0.6567,14 L0.6567,14 Z M10,12 L8,12 L8,10 L10,10 L10,12 L10,12 Z M10,9 L8,9 L8,7 L10,7 L10,9 L10,9 Z M10,4 L10,6 L8,6 L8,4 L10,4 L10,4 Z M7.60005,1.82793333 L7.84215,1.29328889 L8.0841,1.82793333 L8.62485,1.91411111 L8.2335,2.33006667 L8.32605,2.91744444 L7.84215,2.63993333 L7.35825,2.91744444 L7.4505,2.33006667 L7.059,1.91411111 L7.60005,1.82793333 L7.60005,1.82793333 Z M5.75805,1.82793333 L6.00015,1.29328889 L6.24225,1.82793333 L6.7827,1.91411111 L6.39165,2.33006667 L6.4842,2.91744444 L6.00015,2.63993333 L5.5164,2.91744444 L5.6088,2.33006667 L5.21715,1.91411111 L5.75805,1.82793333 L5.75805,1.82793333 Z M5,4 L7,4 L7,6 L5,6 L5,4 L5,4 Z M5,7 L7,7 L7,9 L5,9 L5,7 L5,7 Z M5,10 L7,10 L7,13 L5,13 L5,10 L5,10 Z M3.9159,1.82793333 L4.15815,1.29328889 L4.4001,1.82793333 L4.9407,1.91411111 L4.5495,2.33006667 L4.64175,2.91744444 L4.158,2.63993333 L3.6741,2.91744444 L3.7665,2.33006667 L3.375,1.91411111 L3.9159,1.82793333 L3.9159,1.82793333 Z M2,4 L4,4 L4,6 L2,6 L2,4 L2,4 Z M2,7 L4,7 L4,9 L2,9 L2,7 L2,7 Z M2,10 L4,10 L4,12 L2,12 L2,10 L2,10 Z" id="Shape"></path>
                        </g>
                    </g>
                </g>
            </g>
        </g>
    </g>
</svg>