<?xml version="1.0" encoding="UTF-8" standalone="no"?>
<svg width="24px" height="24px" viewBox="0 0 24 24" version="1.1" xmlns="http://www.w3.org/2000/svg" xmlns:xlink="http://www.w3.org/1999/xlink">
    <!-- Generator: Sketch 39.1 (31720) - http://www.bohemiancoding.com/sketch -->
    <title>ico [phone]</title>
    <desc>Created with Sketch.</desc>
    <defs></defs>
    <g id="Таиланд" stroke="none" stroke-width="1" fill="none" fill-rule="evenodd">
        <g id="Landing-960" transform="translate(-1188.000000, -48.000000)">
            <g id="Главное-меню" transform="translate(0.000000, 32.000000)">
                <g id="Иконка---Телефон" transform="translate(1187.000000, 16.000000)">
                    <polygon id="Shape" points="0 1 24 1 24 25 0 25"></polygon>
                    <path d="M7.6,10.8 C9,13.6 11.4,15.9 14.2,17.4 L16.4,15.2 C16.7,14.9 17.1,14.8 17.4,15 C18.5,15.4 19.7,15.6 21,15.6 C21.5,15.6 22,16 22,16.6 L22,20 C22,20.5 21.5,21 21,21 C11.6,21 4,13.4 4,4 C4,3.5 4.5,3 5,3 L8.5,3 C9.1,3 9.5,3.5 9.5,4 C9.5,5.2 9.7,6.4 10.1,7.6 C10.2,7.9 10.1,8.3 9.9,8.6 L7.6,10.8 L7.6,10.8 Z" id="Shape" fill-opacity="0.7" fill="#FFFFFF"></path>
                </g>
            </g>
        </g>
    </g>
</svg>